<svg viewBox="0 0 22 22" fill="none" xmlns="http://www.w3.org/2000/svg">
<path d="M4.03999 9.36C5.74999 6.64 7.44999 3.92 9.12999 1.18C9.61999 0.4 8.71999 0 8.03999 0C7.15999 0 5.89999 0.3 5.37999 1.1C3.61999 3.82 1.87999 6.54 0.14999 9.27C-0.36001 10.08 0.59999 10.5 1.27999 10.5C2.17999 10.5 3.51999 10.19 4.03999 9.36Z" fill="none"/>
<path d="M8.90999 13.37C11.63 12.15 14.34 10.92 17.05 9.68C17.55 9.45 18.72 8.75 18.11 8.08C17.5 7.41 16.12 7.76 15.47 8.04C12.73 9.24 9.99999 10.45 7.25999 11.67C6.86999 11.84 6.38999 12.11 6.14999 12.48C5.98999 12.73 5.90999 13.1 6.14999 13.33C6.80999 13.96 8.16999 13.7 8.88999 13.37H8.90999Z" fill="none"/>
<path d="M12.34 21.42C14.49 21.2 16.65 20.98 18.8 20.75C19.31 20.69 19.88 20.51 20.31 20.24C20.57 20.08 21.02 19.74 21.07 19.4C21.19 18.5 19.92 18.49 19.34 18.54C17.19 18.73 15.04 18.94 12.89 19.16C12.37 19.21 11.78 19.41 11.34 19.69C11.08 19.85 10.61 20.2 10.56 20.56C10.44 21.48 11.74 21.5 12.33 21.44L12.34 21.42Z" fill="none"/>
</svg>
