<svg viewBox="0 0 52 43" fill="currentColor" xmlns="http://www.w3.org/2000/svg">
<path d="M39.1093 33.2725C38.5593 33.0825 36.5893 32.4825 35.3693 32.0025C32.5293 30.8925 29.6592 29.8525 26.5592 29.4825C26.0692 29.4225 25.3092 29.1625 24.5492 31.2925C23.7592 33.5125 23.7993 34.9825 24.5993 35.1825C26.5593 35.6725 28.6393 35.8525 30.3793 36.9225C32.9193 38.4825 35.7693 39.1825 38.4693 40.3025C39.5293 40.7425 40.5992 41.1325 41.6692 41.5225L42.3192 41.7525C42.5692 41.8325 42.8092 41.9125 43.0592 41.9825C43.5592 42.1225 44.0592 42.2225 44.5492 42.2625C45.5392 42.3625 46.5192 42.2325 47.4292 41.8625C47.9492 41.6225 48.4692 41.3525 48.8992 40.9625C49.7092 40.2825 50.3193 39.3925 50.7393 38.3725C51.1593 37.3725 51.3592 36.1425 51.4392 35.0525C51.4792 34.6725 51.4893 34.2425 51.5093 33.9425L51.5492 33.0125C51.5692 32.3925 51.5592 31.7825 51.5192 31.1625C51.3892 29.0425 50.6993 26.9525 50.3793 24.8425C50.2993 24.3425 50.6893 23.7225 50.6293 23.1725C50.5793 22.7225 50.5192 21.9625 50.2992 21.5325C50.2092 21.3425 50.0892 21.1525 50.1592 20.9525C50.4992 20.0625 49.6693 19.8725 47.0993 20.3025C46.5393 20.3925 45.7892 20.3625 45.4092 20.5925C45.3892 20.6025 45.3593 20.6225 45.3393 20.6325C43.8093 21.3525 44.5692 21.9725 44.5692 22.6325C44.5592 25.8825 44.7092 29.1225 44.7892 32.3725L44.8493 33.8625C44.8693 34.3725 44.8993 34.8425 44.8793 35.1225C44.8593 35.3025 44.7692 35.5125 44.5692 35.5025C44.4492 35.5125 44.2192 35.2225 44.2792 35.3825L44.2892 35.4025C44.1992 35.3325 44.1492 35.1625 44.1492 35.1625H44.1393L44.1293 35.1525C44.0993 35.1425 44.1993 35.1725 44.0093 35.1025L42.4693 34.4925C41.4393 34.0925 40.4092 33.7225 39.3992 33.4625C39.2892 33.4525 39.2193 33.3125 39.1093 33.2725Z" fill="currentColor"/>
<path d="M21.0395 5.50293C20.2895 5.05293 17.4196 3.84293 15.6096 3.04293C11.3896 1.22293 6.8396 -0.00707049 2.2196 0.00292951C1.4996 0.00292951 0.299566 -0.167069 0.0595665 2.08293C-0.190434 4.42293 0.359591 5.90293 1.45959 5.98293C2.12959 6.04293 2.80962 6.04293 3.48962 6.11293L5.51953 6.36293C6.87953 6.51293 8.17954 6.94293 9.40954 7.51293C12.9595 9.30293 16.6396 10.6129 20.0096 12.6829C22.9896 14.5629 25.9195 16.5429 28.5295 18.9129C30.9095 21.2229 32.8796 23.8929 34.9196 26.4229C35.8396 27.4929 36.7296 28.5829 37.7296 29.6029C38.6096 30.7029 39.5996 31.7729 40.3796 32.9629C40.7396 33.5329 40.7596 34.4429 41.1396 35.0629C41.4796 35.5729 41.8796 36.4929 42.3196 36.9529C42.4996 37.1529 42.7096 37.3529 42.7396 37.6229C42.8696 38.8329 43.7596 38.8129 45.9796 37.4529C46.4696 37.1529 47.1996 36.9629 47.4296 36.5329C47.4396 36.5129 47.4596 36.4829 47.4696 36.4629C48.5196 34.9829 47.4396 34.3629 47.0696 33.4629C45.0996 29.0429 42.4396 24.9429 39.3796 21.2029C38.9096 20.6329 38.4496 20.0429 37.9396 19.5029L36.4095 17.8829C35.4295 16.7629 34.3296 15.7729 33.3496 14.6329C32.8196 14.0029 32.3996 13.2429 31.6196 12.8729L31.6296 12.8829C31.0096 12.2829 30.4296 11.6029 29.7496 11.0729C27.0896 9.16293 24.3396 7.06293 21.4296 5.80293C21.2996 5.76293 21.1995 5.59293 21.0395 5.50293Z" fill="currentColor"/>
</svg>
