<svg viewBox="0 0 345 12" fill="none" xmlns="http://www.w3.org/2000/svg">
<path d="M319.527 7.1787C307.317 7.1787 295.106 7.26113 282.896 7.15622C273.105 7.0738 263.314 6.6317 253.509 6.57925C245.035 6.53429 236.503 6.54927 228.087 7.01385C210.408 7.98048 192.816 9.41169 175.123 10.3184C166.606 10.753 158.275 10.0261 149.973 8.30269C136.432 5.49272 122.389 6.84899 108.604 8.31767C100.56 9.1719 92.5867 10.1985 84.5421 11.0003C77.3992 11.7121 71.0436 11.0452 65.2463 8.35515C59.406 5.64259 51.8766 6.31697 45.1203 7.14872C35.3006 8.34764 25.6957 10.0336 16.0335 11.5772C9.9785 12.5439 4.51041 11.9069 0.817301 9.10447C-0.399421 8.1828 -0.0988142 6.38441 0.688477 5.20798C1.01771 4.71342 4.93982 4.2863 6.34263 4.68344C10.823 5.9498 14.7452 5.08809 18.9106 4.44367C31.1638 2.54788 43.4455 0.517213 56.4286 1.09419C60.6371 1.28152 65.4181 1.79107 68.6817 3.04244C75.3093 5.59014 82.1229 5.11055 89.2086 4.47363C101.419 3.37212 113.572 2.07581 125.825 1.14665C134.943 0.457272 143.904 1.04923 152.664 2.82513C163.643 5.04313 175.166 4.47365 186.489 3.79176C205.413 2.65279 224.236 0.906854 243.203 0.105078C253.681 -0.337023 264.359 0.749488 274.966 0.891859C289.137 1.07919 303.323 0.974285 317.508 1.07919C324.823 1.13164 332.181 1.21408 339.438 1.64868C341.471 1.76858 344.434 3.04243 344.863 4.03903C345.736 6.04722 342.258 6.1896 339.367 6.27203C332.768 6.47434 326.998 6.9614 320.399 7.1787L319.527 7.1787Z" fill="none"/>
</svg>
