<svg viewBox="0 0 27 29" fill="none" xmlns="http://www.w3.org/2000/svg">
<path fill-rule="evenodd" clip-rule="evenodd" d="M0.576422 2.4087C0.497576 1.58403 1.10218 0.85159 1.92685 0.772744C2.16894 0.749597 2.41537 0.725448 2.6656 0.700927C5.18972 0.453571 8.10043 0.168333 10.8423 0.492742C13.9169 0.856522 16.9559 2.00279 19.1803 4.90993C21.427 7.84634 22.0548 11.4068 22.2343 14.801C22.3171 16.3659 22.3059 17.9504 22.2952 19.4558C22.2943 19.5884 22.2934 19.7204 22.2925 19.8518C22.2817 21.4962 22.2816 23.034 22.4004 24.4592C22.4691 25.2848 21.8556 26.0098 21.0301 26.0786C20.2045 26.1473 19.4795 25.5338 19.4107 24.7083C19.2792 23.1302 19.2818 21.4644 19.2926 19.832C19.2934 19.7042 19.2943 19.5765 19.2952 19.449C19.3058 17.9265 19.3163 16.43 19.2385 14.9594C19.0693 11.7608 18.489 8.94337 16.7977 6.73295C15.2186 4.66919 13.0486 3.77471 10.4898 3.47196C8.08886 3.18789 5.50264 3.43946 2.91856 3.69082C2.6831 3.71373 2.44766 3.73663 2.21238 3.75913C1.38771 3.83797 0.655268 3.23336 0.576422 2.4087Z" fill="none"/>
<path fill-rule="evenodd" clip-rule="evenodd" d="M15.0942 18.425C15.7526 17.9223 16.6939 18.0486 17.1967 18.707C17.4217 19.0017 17.6544 19.3017 17.8914 19.6072C19.0035 21.0404 20.2093 22.5944 21.1473 24.2923C21.1494 24.288 21.1514 24.2838 21.1535 24.2795C21.2609 24.0612 21.3758 23.8275 21.5018 23.5773C22.0123 22.5637 22.7383 21.2239 23.9448 20.4217C24.6347 19.9631 25.5658 20.1505 26.0244 20.8404C26.4831 21.5303 26.2957 22.4613 25.6058 22.92C25.1378 23.2311 24.7119 23.873 24.1811 24.9269C24.1026 25.0828 24.0199 25.2526 23.9328 25.4315C23.5236 26.2716 23.0168 27.3121 22.3844 28.0594C22.222 28.2514 21.9773 28.4573 21.6365 28.5734C21.2875 28.6923 20.949 28.6789 20.6698 28.6043C20.1835 28.4742 19.8731 28.1608 19.7443 28.0209C19.4491 27.7001 19.2182 27.2796 19.0695 26.9869C18.9029 26.6588 18.7562 26.3207 18.6521 26.0713C18.6033 25.9543 18.5618 25.8519 18.5319 25.7781L18.525 25.761C18.5183 25.7443 18.5126 25.7303 18.5078 25.7185C17.6967 24.2557 16.6703 22.9307 15.5707 21.5115C15.3211 21.1893 15.0677 20.8622 14.8122 20.5275C14.3095 19.8691 14.4357 18.9277 15.0942 18.425ZM18.4849 25.6636C18.4849 25.6636 18.4868 25.6677 18.4913 25.6784C18.4873 25.6695 18.4849 25.6636 18.4849 25.6636Z" fill="none"/>
</svg>
