<svg width="260" height="260" viewBox="0 0 260 260" fill="none" xmlns="http://www.w3.org/2000/svg">
<path d="M105.032 65.4V164.6C105.032 171 103.965 176.867 101.832 182.2C99.832 187.4 96.832 191.867 92.832 195.6C88.832 199.2 83.9654 202.067 78.232 204.2C72.632 206.2 66.232 207.2 59.032 207.2C52.0987 207.2 45.9654 206.267 40.632 204.4C35.432 202.533 30.8987 199.867 27.032 196.4C23.2987 192.933 20.232 188.8 17.832 184C15.432 179.2 13.7654 173.867 12.832 168L41.232 162.4C43.4987 174.533 49.2987 180.6 58.632 180.6C63.032 180.6 66.7654 179.2 69.832 176.4C73.032 173.6 74.632 169.2 74.632 163.2V89.8H32.232V65.4H105.032ZM216.654 205L206.654 171.8H160.054L150.054 205H119.254L165.254 65.4H202.854L248.254 205H216.654ZM183.654 93H182.654L167.254 146H199.254L183.654 93Z" fill="#0D63F8"/>
</svg>
